# xmcd
# 
# Track frame offsets:
#     150
#     29250
#     56692
#     76357
#     98437
#     121022
#     133727
#     159797
#     181292
#     201200
# 
# Disc length: 3012
# 
# Revision: 4
# Processed by: cddbd v1.5.2PL0 Copyright (c) Steve Scherf et al.
# Submitted via: fre:ac v1.0.17
# 
DISCID=740bc20a
DTITLE=Various Artist - A Celebration of blues - the great Singers
DYEAR=2006
DGENRE=Blues
TTITLE0=Koko Taylor with Buddy Guy - Born under a bad Sign
TTITLE1=Rufus Thomas - Breaking my back
TTITLE2=Luther Johnson - Big leg woman
TTITLE3=Sonny Boy Williamson with Memphis Slim - Same girl
TTITLE4=Katie Webster with Lonnie Brooks - Thone lonely lonely nights
TTITLE5=Duke Robillard - Tell me why
TTITLE6=Jong John Baldry - Stormy monday blues
TTITLE7=Dr. John - Touro Infermary
TTITLE8=Jimmy Witherspoon - Lown down dirty shame
TTITLE9=Robert Cray with Albert Collins - The dream
EXTD=information in db has song names in artist field, and no artists listed for songs.
EXTT0=
EXTT1=
EXTT2=
EXTT3=
EXTT4=
EXTT5=
EXTT6=
EXTT7=
EXTT8=
EXTT9=
PLAYORDER=
